<svg xmlns="http://www.w3.org/2000/svg" viewBox="0 0 143 147" width="143" height="147">
	<style>
		tspan { white-space:pre }
		.shp0 { fill: #3a3a3a } 
	</style>
	<path id="Path 2" fill-rule="evenodd" class="shp0" d="M142.05 68.66C142.79 69.78 142.3 70.93 141.43 71.52C134.97 113.79 85.97 153.93 42.79 145.99C42.31 145.9 41.98 145.67 41.72 145.41C41.22 145.41 40.72 145.22 40.35 144.69C28.91 128.37 15.38 113.05 6.94 94.87C-0.34 92.95 -1.41 82.87 1.5 76.51C2.17 75.04 4.64 75.81 4.2 77.4C2.32 84.39 4.45 92.21 13.31 90.89C14.32 90.74 15.44 91.72 15.42 92.74C15.28 99.3 18.85 106.13 27.59 101.3C28.65 100.72 29.74 100.9 30.49 101.86C36.47 109.45 44.86 109.45 48.14 99.72C48.53 98.54 50.05 98.31 51.04 98.7C57.28 101.17 60 98.74 64.96 96.66C65.17 96.57 65.37 96.56 65.57 96.54C67.65 92.63 70.07 88.97 71.21 84.58C71.52 83.38 72.49 82.77 73.7 82.9C82.24 83.76 87.11 78.6 86.24 70.05C86.15 69.11 86.82 68.05 87.74 67.81C94.61 66.01 98.16 63.21 97.76 54.99C97.7 53.77 98.62 52.7 99.85 52.61C105.8 52.18 117.13 48.21 108.39 39.03C107.41 37.99 107.26 36.29 108.59 35.43C115.3 31.08 113.53 25.72 106 23.77C104.45 23.37 103.86 21.97 104.36 20.53C107.96 10.05 99.68 6.76 92.12 11.07C90.13 12.21 88.12 10.2 88.48 8.53C80.07 1.79 70.77 6.45 66.54 15.84C66.07 16.89 64.57 17.52 63.53 16.9C57.04 13.02 49.62 13.05 48.72 22.62C48.61 23.79 47.2 24.68 46.1 24.4C36.68 21.97 30.53 27.16 32.64 37.13C33 38.81 31.9 40.21 30.12 40.01C20.24 38.92 18.77 45.74 18.94 53.04C18.98 54.51 17.79 55.47 16.37 55.32C3.87 53.91 2.98 65.49 4.65 73.91C4.98 75.61 2.63 76.54 2.01 74.8C-2.04 63.29 2.38 51.41 14.61 50.98C14.91 42.14 19.19 35.83 28.01 35.56C27.06 25 33.74 17.84 44.64 19.53C46.55 9.29 54.54 7.25 63.55 11.77C69.65 0.91 82.38 -3.38 92.37 5.88C102.94 1.78 111.66 8.72 109.2 20.02C116.32 22.67 119.51 28 116.88 33.26C127.26 43.43 134.1 56.61 142.05 68.66ZM137.57 69.47C130.12 58.19 123.29 46.68 114.89 36.07C114.36 36.64 113.79 37.2 113.11 37.75C119.49 46.73 112.72 55.14 102.26 56.83C102.18 61.34 101.09 66.06 96.94 68.68C95.36 69.69 91 70.93 90.87 72.9C90.69 75.64 90.18 77.66 89.08 80.13C87.42 83.89 82.51 87.08 78.45 87.29C73.57 87.54 70.28 94.12 67.66 98.75C67.66 99.37 67.42 99.97 66.78 100.34L66.7 100.38L66.57 100.59C66.2 101.18 65.62 101.35 65.1 101.26C60.3 103.82 56.48 104.9 51.34 103.39C46.56 114.13 35.72 113.83 28.24 105.6C24.68 107.23 20.57 108.07 17.09 105.57C16.87 105.41 16.37 104.81 15.76 104C24.25 117.02 33.95 129.13 42.75 142.03C43 141.96 43.27 141.93 43.57 141.97C85.69 147.17 130.12 111.05 137.41 69.99C137.45 69.8 137.51 69.63 137.57 69.47Z" />
</svg>